<?xml version="1.0" encoding="UTF-8"?>
<svg id="Layer_3" data-name="Layer 3" xmlns="http://www.w3.org/2000/svg" viewBox="0 0 864 864">
  <defs>
    <style>
      .cls-1 {
        fill: none;
        stroke: #231f20;
        stroke-linecap: round;
        stroke-linejoin: round;
        stroke-width: 2px;
      }
    </style>
  </defs>
  <path class="cls-1" d="m253.49,335.68c-4.24.14-7.53.03-9.66-.39,0,0-34.84-63.96-24.59-244.28,0,0,126.39-32.36,204.27-13.87,0,0,15.71,106.34,15.03,229.63,0,0-11.84,2.3-29.72,5.6"/>
  <path class="cls-1" d="m423.51,77.15s-70.87-42.38-95.55-50.09c-24.69-7.71-174.31,26.97-174.31,26.97l65.59,36.99"/>
  <path class="cls-1" d="m153.65,54.03s-11.16,145.38,20.27,241.96c0,0,24.82,34.86,69.91,39.3"/>
  <path class="cls-1" d="m425.79,351.51s3.37,56.37-13.94,64.57c-17.31,8.2-169.43-29.15-180.36-39.63-10.93-10.48,20.5-40.08,20.5-40.08,0,0,97.92-46.46,161.23-21.41,63.31,25.05-13.21,45.55-13.66,53.74"/>
  <path class="cls-1" d="m236.27,379.23s-108.29,220.85-40.94,380.72c0,0,1.09,40.31,96.73-9.56,0,0,77.54-267.67,8.88-328.62"/>
  <path class="cls-1" d="m300.86,716.93c-1.79,13.67,101.32,90.11,190.02-12.32"/>
  <path class="cls-1" d="m486.09,531.76c-12.98,13.66-21.86,123.66,4.78,172.85,26.64,49.19,111.36,10.25,111.36,10.25,2.73-150.99-40.99-207.01-40.99-207.01,0,0-33.48-27.33-80.62-21.18-47.14,6.15-120.24,138.69-120.24,138.69"/>
  <path class="cls-1" d="m518.83,485.77s39.68-33.94,56.76-31.21,41.67,12.98,53.29,46.46c11.61,33.48,70.37,142.79,71.74,205.64,0,0-19.01,42.59-98.26,3.64"/>
  <path class="cls-1" d="m426.77,367.34s24.76-6.84,93.77,121.6"/>
  <path class="cls-1" d="m594.09,718.19s11.82,27.87,17.29,35.39c5.47,7.52-76.32,8.65-85.21,1.14-8.88-7.52-10.7-29.05-10.7-29.05"/>
  <path class="cls-1" d="m693.33,715.74c-1.95.31,12.85,20.83,16.85,27.13,1.59,2.51-58.07,10.97-66.95,5.24-8.88-5.73-15.71-25.73-15.71-25.73"/>
  <line class="cls-1" x1="292.12" y1="172.56" x2="297.59" y2="218.68"/>
  <line class="cls-1" x1="371.37" y1="167.1" x2="376.49" y2="215.26"/>
  <polyline class="cls-1" points="310.22 269.58 367.61 255.91 369.66 269.58"/>
  <path class="cls-1" d="m218.74,775.33c-4.92-1.68-30.52,19.01-20.04,26.3.35.25,27.48,12.55,52.38-8.88"/>
  <path class="cls-1" d="m257.45,779.31c-15.71,15.17,17.1,44.08,31.22-27.17"/>
</svg>